<svg height="512" viewBox="0 0 32 32" width="512" xmlns="http://www.w3.org/2000/svg"><g id="phone_chat"><path d="m16 1c-8.2709961 0-15 6.7285156-15 15 0 2.9101563.8344727 5.7158203 2.418457 8.1523438l-2.3374023 5.4541016c-.1611328.375-.0771484.8115234.2119141 1.1005859.1914062.1914062.4472656.2929687.7070312.2929687.1328125 0 .2670898-.0263672.394043-.0810547l5.4541016-2.3378906c2.4360351 1.5849609 5.2416992 2.4189453 8.1518554 2.4189453 8.2714844 0 15-6.7285156 15-15s-6.7285156-15-15-15zm7.6992188 20.3691406s-1.2470703 1.5996094-2.1484375 1.9736328c-2.2910156.9482422-5.5253906 0-9.2099609-3.6835938-3.6835938-3.6845703-4.6323242-6.9189453-3.6835938-9.2099609.3740234-.9023437 1.9736328-2.1484374 1.9736328-2.1484374.4335938-.3378906 1.1074219-.2958984 1.4960938.0927734l1.8095703 1.8095703c.3886719.3886719.3886719 1.0253906 0 1.4140625l-1.1357422 1.1347656s-.4599609 1.3808594 2.3027344 4.1445313c2.7626953 2.7626953 4.1445313 2.3027344 4.1445313 2.3027344l1.1347656-1.1357422c.3886719-.3886719 1.0253906-.3886719 1.4140625 0l1.8095703 1.8095703c.3886718.3886719.430664 1.0615234.0927734 1.4960937z"/></g></svg>